HIERARCHY
ROOT Hips
{
	OFFSET 0.000000 71.427986 0.000000
	CHANNELS 6 Xposition Yposition Zposition Xrotation Yrotation Zrotation
	JOINT Pelvis
	{
		OFFSET 0.000000 0.000000 0.000000
		CHANNELS 3 Xrotation Yrotation Zrotation
		JOINT LeftUpLeg
		{
			OFFSET 6.797100 -2.508499 -1.318700
			CHANNELS 3 Xrotation Yrotation Zrotation
			JOINT LeftLeg
			{
				OFFSET 0.069008 -29.241863 0.690200
				CHANNELS 3 Xrotation Yrotation Zrotation
				JOINT LeftFoot
				{
					OFFSET -0.069008 -29.568123 -0.266800
					CHANNELS 3 Xrotation Yrotation Zrotation
					JOINT LeftToeBase
					{
						OFFSET 3.145500 -8.631000 16.059900
						CHANNELS 3 Xrotation Yrotation Zrotation
						End Site
						{
							OFFSET 0.000000 18.501587 0.000000
						}
					}
				}
			}
			JOINT Left_ShortSleeve
			{
				OFFSET 0.265923 -10.480953 1.153800
				CHANNELS 3 Xrotation Yrotation Zrotation
				End Site
				{
					OFFSET 1.725763 19.823879 0.000000
				}
			}
		}
		JOINT RightUpLeg
		{
			OFFSET -6.797100 -2.508499 -1.318700
			CHANNELS 3 Xrotation Yrotation Zrotation
			JOINT RightLeg
			{
				OFFSET -0.082453 -29.241932 0.688000
				CHANNELS 3 Xrotation Yrotation Zrotation
				JOINT RightFoot
				{
					OFFSET 0.082453 -29.568058 -0.264600
					CHANNELS 3 Xrotation Yrotation Zrotation
					JOINT RightToeBase
					{
						OFFSET -3.115300 -8.682800 16.113400
						CHANNELS 3 Xrotation Yrotation Zrotation
						End Site
						{
							OFFSET 0.000000 18.567114 0.000000
						}
					}
				}
			}
			JOINT Right_ShortSleeve
			{
				OFFSET -0.265923 -10.480953 1.153800
				CHANNELS 3 Xrotation Yrotation Zrotation
				End Site
				{
					OFFSET -1.725766 19.823910 0.000000
				}
			}
		}
	}
	JOINT Spine
	{
		OFFSET 0.000000 13.368103 0.470500
		CHANNELS 3 Xrotation Yrotation Zrotation
		JOINT Spine1
		{
			OFFSET 0.147000 13.837402 0.538800
			CHANNELS 3 Xrotation Yrotation Zrotation
			JOINT Spine2
			{
				OFFSET 0.168000 16.242897 -1.435500
				CHANNELS 3 Xrotation Yrotation Zrotation
				JOINT Neck
				{
					OFFSET 0.217200 18.631500 -1.679100
					CHANNELS 3 Xrotation Yrotation Zrotation
					JOINT Head
					{
						OFFSET 0.000000 6.599396 1.385900
						CHANNELS 3 Xrotation Yrotation Zrotation
						JOINT Hat
						{
							OFFSET -0.532200 27.220596 -10.096100
							CHANNELS 3 Xrotation Yrotation Zrotation
							End Site
							{
								OFFSET 0.000000 22.029861 0.000000
							}
						}
						JOINT HairD
						{
							OFFSET -10.777400 17.437393 -1.325900
							CHANNELS 3 Xrotation Yrotation Zrotation
							JOINT HairD1
							{
								OFFSET -3.290299 -11.051193 1.062200
								CHANNELS 3 Xrotation Yrotation Zrotation
								End Site
								{
									OFFSET 0.000000 11.579437 0.000000
								}
							}
						}
						JOINT HairB
						{
							OFFSET -10.777400 17.437393 1.467900
							CHANNELS 3 Xrotation Yrotation Zrotation
							JOINT HairB1
							{
								OFFSET -1.561200 -12.956299 3.590200
								CHANNELS 3 Xrotation Yrotation Zrotation
								End Site
								{
									OFFSET 0.000000 13.534866 0.000000
								}
							}
						}
						JOINT HairA
						{
							OFFSET 9.713100 17.437393 1.467900
							CHANNELS 3 Xrotation Yrotation Zrotation
							JOINT HairA1
							{
								OFFSET 1.561200 -12.956299 3.590200
								CHANNELS 3 Xrotation Yrotation Zrotation
								End Site
								{
									OFFSET 0.000000 13.534866 0.000000
								}
							}
						}
						JOINT HairC
						{
							OFFSET 9.713100 17.437393 -1.325900
							CHANNELS 3 Xrotation Yrotation Zrotation
							JOINT HairC1
							{
								OFFSET 3.290300 -11.051193 1.062200
								CHANNELS 3 Xrotation Yrotation Zrotation
								End Site
								{
									OFFSET 0.000000 11.579437 0.000000
								}
							}
						}
					}
				}
				JOINT LeftShoulder
				{
					OFFSET 5.101800 15.108002 -2.763700
					CHANNELS 3 Xrotation Yrotation Zrotation
					JOINT LeftArm
					{
						OFFSET 9.825497 2.506317 -1.597400
						CHANNELS 3 Xrotation Yrotation Zrotation
						JOINT LeftForeArm
						{
							OFFSET 21.966244 0.000000 0.000000
							CHANNELS 3 Xrotation Yrotation Zrotation
							JOINT LeftHand
							{
								OFFSET 33.879036 0.000000 0.000000
								CHANNELS 3 Xrotation Yrotation Zrotation
								JOINT LeftHandThumb1
								{
									OFFSET 6.715286 -2.359680 3.363841
									CHANNELS 3 Xrotation Yrotation Zrotation
									JOINT LeftHandThumb2
									{
										OFFSET 2.507072 -1.447464 1.447461
										CHANNELS 3 Xrotation Yrotation Zrotation
										JOINT LeftHandThumb3
										{
											OFFSET 2.898338 -1.673355 1.673357
											CHANNELS 3 Xrotation Yrotation Zrotation
											End Site
											{
												OFFSET -0.295959 3.727692 -0.131651
											}
										}
									}
								}
								JOINT LeftHandIndex1
								{
									OFFSET 14.190811 -0.254547 3.840278
									CHANNELS 3 Xrotation Yrotation Zrotation
									JOINT LeftHandIndex2
									{
										OFFSET 3.551727 0.000000 -0.000000
										CHANNELS 3 Xrotation Yrotation Zrotation
										JOINT LeftHandIndex3
										{
											OFFSET 2.894196 0.000000 0.000000
											CHANNELS 3 Xrotation Yrotation Zrotation
											End Site
											{
												OFFSET -1.000603 2.690872 0.366626
											}
										}
									}
								}
								JOINT LeftHandMiddle1
								{
									OFFSET 13.776489 0.000000 0.000000
									CHANNELS 3 Xrotation Yrotation Zrotation
									JOINT LeftHandMiddle2
									{
										OFFSET 3.438232 0.000000 0.000000
										CHANNELS 3 Xrotation Yrotation Zrotation
										JOINT LeftHandMiddle3
										{
											OFFSET 3.691551 0.000000 0.000000
											CHANNELS 3 Xrotation Yrotation Zrotation
											End Site
											{
												OFFSET -1.082298 3.499527 0.457670
											}
										}
									}
								}
								JOINT LeftHandRing1
								{
									OFFSET 13.966164 -0.268127 -3.067488
									CHANNELS 3 Xrotation Yrotation Zrotation
									JOINT LeftHandRing2
									{
										OFFSET 3.162567 0.000000 0.000000
										CHANNELS 3 Xrotation Yrotation Zrotation
										JOINT LeftHandRing3
										{
											OFFSET 3.324348 0.000000 0.000000
											CHANNELS 3 Xrotation Yrotation Zrotation
											End Site
											{
												OFFSET -0.861900 3.184998 0.405154
											}
										}
									}
								}
								JOINT LeftHandPinky1
								{
									OFFSET 13.131393 -0.168503 -5.746925
									CHANNELS 3 Xrotation Yrotation Zrotation
									JOINT LeftHandPinky2
									{
										OFFSET 2.849182 0.000000 0.000000
										CHANNELS 3 Xrotation Yrotation Zrotation
										JOINT LeftHandPinky3
										{
											OFFSET 2.805038 0.000000 0.000000
											CHANNELS 3 Xrotation Yrotation Zrotation
											End Site
											{
												OFFSET -0.882500 2.642609 0.325652
											}
										}
									}
								}
							}
							JOINT Left_Sleeve
							{
								OFFSET 6.592125 -0.646545 0.805568
								CHANNELS 3 Xrotation Yrotation Zrotation
								End Site
								{
									OFFSET -0.000179 20.275787 -0.000000
								}
							}
						}
					}
				}
				JOINT RightShoulder
				{
					OFFSET -5.731700 15.108002 -2.763700
					CHANNELS 3 Xrotation Yrotation Zrotation
					JOINT RightArm
					{
						OFFSET -9.825497 2.506317 -1.597400
						CHANNELS 3 Xrotation Yrotation Zrotation
						JOINT RightForeArm
						{
							OFFSET -21.966242 0.000000 0.000000
							CHANNELS 3 Xrotation Yrotation Zrotation
							JOINT RightHand
							{
								OFFSET -33.879032 0.000000 0.000000
								CHANNELS 3 Xrotation Yrotation Zrotation
								JOINT RightHandThumb1
								{
									OFFSET -6.715286 -2.359680 3.363841
									CHANNELS 3 Xrotation Yrotation Zrotation
									JOINT RightHandThumb2
									{
										OFFSET -2.507072 -1.447464 1.447461
										CHANNELS 3 Xrotation Yrotation Zrotation
										JOINT RightHandThumb3
										{
											OFFSET -2.898338 -1.673355 1.673357
											CHANNELS 3 Xrotation Yrotation Zrotation
											End Site
											{
												OFFSET 0.295959 3.727692 -0.131651
											}
										}
									}
								}
								JOINT RightHandIndex1
								{
									OFFSET -14.190811 -0.254547 3.840278
									CHANNELS 3 Xrotation Yrotation Zrotation
									JOINT RightHandIndex2
									{
										OFFSET -3.551727 0.000000 -0.000000
										CHANNELS 3 Xrotation Yrotation Zrotation
										JOINT RightHandIndex3
										{
											OFFSET -2.894196 0.000000 0.000000
											CHANNELS 3 Xrotation Yrotation Zrotation
											End Site
											{
												OFFSET 1.000603 2.690872 0.366626
											}
										}
									}
								}
								JOINT RightHandMiddle1
								{
									OFFSET -13.776489 0.000000 0.000000
									CHANNELS 3 Xrotation Yrotation Zrotation
									JOINT RightHandMiddle2
									{
										OFFSET -3.438232 0.000000 0.000000
										CHANNELS 3 Xrotation Yrotation Zrotation
										JOINT RightHandMiddle3
										{
											OFFSET -3.691551 0.000000 0.000000
											CHANNELS 3 Xrotation Yrotation Zrotation
											End Site
											{
												OFFSET 1.082298 3.499527 0.457670
											}
										}
									}
								}
								JOINT RightHandRing1
								{
									OFFSET -13.966164 -0.268127 -3.067488
									CHANNELS 3 Xrotation Yrotation Zrotation
									JOINT RightHandRing2
									{
										OFFSET -3.162567 0.000000 0.000000
										CHANNELS 3 Xrotation Yrotation Zrotation
										JOINT RightHandRing3
										{
											OFFSET -3.324348 0.000000 0.000000
											CHANNELS 3 Xrotation Yrotation Zrotation
											End Site
											{
												OFFSET 0.861900 3.184998 0.405154
											}
										}
									}
								}
								JOINT RightHandPinky1
								{
									OFFSET -13.131393 -0.168503 -5.746925
									CHANNELS 3 Xrotation Yrotation Zrotation
									JOINT RightHandPinky2
									{
										OFFSET -2.849182 0.000000 0.000000
										CHANNELS 3 Xrotation Yrotation Zrotation
										JOINT RightHandPinky3
										{
											OFFSET -2.805038 0.000000 0.000000
											CHANNELS 3 Xrotation Yrotation Zrotation
											End Site
											{
												OFFSET 0.882500 2.642609 0.325652
											}
										}
									}
								}
							}
							JOINT Right_Sleeve
							{
								OFFSET -6.592125 -0.646545 0.805568
								CHANNELS 3 Xrotation Yrotation Zrotation
								End Site
								{
									OFFSET 0.000179 20.275787 -0.000000
								}
							}
						}
					}
				}
				JOINT Bind_Right_JacketString
				{
					OFFSET -3.534800 11.969597 7.200700
					CHANNELS 3 Xrotation Yrotation Zrotation
					JOINT Bind_Right_JacketString1
					{
						OFFSET -0.319900 -6.102600 2.794100
						CHANNELS 3 Xrotation Yrotation Zrotation
						End Site
						{
							OFFSET 0.000000 6.719452 0.000000
						}
					}
				}
				JOINT Bind_Left_JacketString
				{
					OFFSET 2.904800 11.969597 7.200700
					CHANNELS 3 Xrotation Yrotation Zrotation
					JOINT Bind_Left_JacketString1
					{
						OFFSET 0.364800 -5.904503 3.186800
						CHANNELS 3 Xrotation Yrotation Zrotation
						End Site
						{
							OFFSET 0.000000 6.719513 0.000000
						}
					}
				}
				JOINT HairE
				{
					OFFSET 5.915200 17.612701 -11.592200
					CHANNELS 3 Xrotation Yrotation Zrotation
					JOINT HairE1
					{
						OFFSET 0.289200 -7.171898 -1.284500
						CHANNELS 3 Xrotation Yrotation Zrotation
						End Site
						{
							OFFSET 0.000000 7.291756 0.000000
						}
					}
				}
				JOINT HairF
				{
					OFFSET -0.864800 17.612701 -11.592200
					CHANNELS 3 Xrotation Yrotation Zrotation
					JOINT HairF1
					{
						OFFSET 0.000000 -14.087097 -2.127501
						CHANNELS 3 Xrotation Yrotation Zrotation
						End Site
						{
							OFFSET 0.000000 14.246841 0.000000
						}
					}
				}
				JOINT HairG
				{
					OFFSET -8.087700 17.612701 -11.592200
					CHANNELS 3 Xrotation Yrotation Zrotation
					JOINT HairG1
					{
						OFFSET -0.293600 -6.081398 -0.910100
						CHANNELS 3 Xrotation Yrotation Zrotation
						End Site
						{
							OFFSET 0.000000 6.156120 0.000000
						}
					}
				}
			}
		}
	}
	JOINT Pouch
	{
		OFFSET 0.000000 4.394501 10.847300
		CHANNELS 3 Xrotation Yrotation Zrotation
		End Site
		{
			OFFSET 0.000000 21.880577 0.000000
		}
	}
	JOINT Bag
	{
		OFFSET -13.229000 4.813004 -0.593300
		CHANNELS 3 Xrotation Yrotation Zrotation
		End Site
		{
			OFFSET 0.000000 21.880577 0.000000
		}
	}
	JOINT OccupyGuyFacialAnim_Joint
	{
		OFFSET 1.000000 -70.206398 -1.655000
		CHANNELS 3 Xrotation Yrotation Zrotation
		End Site
		{
			OFFSET 0.000000 21.880577 0.000000
		}
	}
}
MOTION
Frames: 4
Frame Time: 0.033333
2.379693 68.657860 141.865326 -0.875726 -2.614855 -1.873729 -0.000000 0.000000 -0.000000 -15.901437 10.452031 2.829745 34.785884 1.952040 1.668852 -18.691093 -0.123733 -0.116425 0.000000 0.000000 -0.000000 -0.000001 -0.000000 0.000000 -14.856172 -3.515737 -5.130508 28.812122 -0.745805 -2.610909 -12.727956 -1.265018 8.526923 -0.000000 0.000000 0.000000 0.000002 0.000001 -0.000000 11.434931 -2.642748 -0.375023 1.810463 -0.357774 0.160039 1.811485 -0.352561 0.158825 13.811418 -0.842348 0.551189 19.385159 -2.273544 -4.827045 -0.000000 -0.000001 0.000000 -0.000000 -0.000001 0.000000 -0.000000 -0.000001 0.000000 -0.000000 -0.000001 0.000000 0.000002 -0.000000 -0.000000 -0.000000 -0.000001 0.000000 0.000002 -0.000000 -0.000000 -0.000000 -0.000001 0.000000 -0.000000 -0.000001 0.000000 0.473837 -8.889445 -12.057325 4.790007 -10.418728 -55.059005 -0.000032 -54.274479 -0.000053 3.286517 13.589983 -11.149001 0.614320 13.085833 -18.224753 -7.898253 2.795556 28.344959 0.000001 -0.000000 -0.000000 -0.792311 0.641271 -31.551895 1.056986 3.670910 -32.115823 0.000003 -0.000002 -0.000002 0.727182 3.099470 -29.134770 1.785474 4.630441 -42.154869 0.000002 0.000005 -0.000002 3.165004 7.138421 -31.053749 0.707601 3.045242 -26.156940 0.000001 -0.000000 -0.000000 5.688976 10.046868 -35.741605 0.473162 -1.555681 -21.710996 -0.000004 0.000001 0.000003 0.000001 0.000002 -0.000003 0.583068 15.214909 9.679974 20.289418 15.587936 53.963610 0.000014 35.062988 -0.000013 -4.639448 -2.235906 6.644843 11.971687 -5.254704 4.832906 -14.599784 -25.075957 -9.954462 -0.000001 -0.000001 0.000001 -1.651593 5.021167 15.930552 0.440459 -2.439736 20.464046 -0.000002 0.000000 -0.000001 -0.155103 -0.791745 19.941594 1.055890 -3.688673 31.938231 -0.000000 -0.000002 0.000004 1.241262 -4.510771 21.010984 1.608662 -4.452463 39.713250 0.000001 -0.000004 -0.000001 -0.740330 -0.276963 27.612156 0.811834 -3.265474 27.915697 -0.000001 0.000001 0.000001 0.000003 0.000000 -0.000000 -0.000000 -0.000000 -0.000000 -0.000000 -0.000000 -0.000000 -0.000000 -0.000000 -0.000000 -0.000000 -0.000000 -0.000000 -0.000000 -0.000000 -0.000000 -0.000000 -0.000000 -0.000000 -0.000000 -0.000000 -0.000000 -0.000000 -0.000000 -0.000000 -0.000000 -0.000000 -0.000000 -0.000000 -0.000000 -0.000000 -0.000000 0.000000 -0.000000 -0.000000 0.000000 -0.000000 -0.000000 0.000000 -0.000000 
2.184979 68.622437 141.549866 0.064263 -0.305085 -1.030979 0.000000 0.000000 0.000000 -17.036076 9.592583 1.717230 34.360329 0.703630 2.040731 -17.816294 -0.135894 0.002192 0.000000 0.000000 -0.000000 0.000000 -0.000000 -0.000000 -16.192135 -3.897976 -6.144963 29.753564 -2.238468 -2.267085 -13.147284 -1.292914 8.575293 -0.000000 0.000000 0.000000 0.000000 0.000000 -0.000000 13.408114 -2.199901 0.538878 1.635314 -0.303880 0.029876 1.635288 -0.304043 0.030456 14.214736 -1.262954 0.836337 17.311912 -4.210929 -4.554188 -0.000001 -0.000000 0.000000 -0.000001 -0.000000 0.000000 -0.000001 -0.000000 0.000000 -0.000001 -0.000000 0.000000 0.000003 0.000000 -0.000000 -0.000001 -0.000000 0.000000 0.000003 0.000000 -0.000000 -0.000001 -0.000000 0.000000 -0.000001 -0.000000 0.000000 0.499362 -9.547128 -11.338616 5.591031 -8.858274 -56.790168 -0.000024 -55.982758 -0.000039 3.286516 13.589972 -11.148985 0.614314 13.085840 -18.224743 -7.899150 2.795411 28.346829 -0.000002 -0.000002 -0.000000 -0.792319 0.641271 -31.551895 1.056979 3.670916 -32.115819 -0.000001 -0.000001 -0.000000 0.727181 3.099488 -29.134742 1.785466 4.630434 -42.154889 -0.000002 0.000002 0.000004 3.164986 7.138422 -31.053759 0.707603 3.045264 -26.156939 -0.000001 0.000002 0.000003 5.688956 10.046862 -35.741591 0.473159 -1.555683 -21.711003 -0.000001 0.000001 0.000001 0.000001 -0.000002 0.000001 0.370366 16.542033 11.542738 21.083197 15.106027 50.154318 0.000000 35.678347 0.000003 -6.914475 -2.079413 4.901490 12.511414 -5.533446 4.847466 -14.524558 -25.058735 -9.881950 0.000003 -0.000001 0.000000 -1.511319 5.078985 14.702677 0.434880 -2.424782 20.332806 0.000002 0.000000 0.000002 -0.145729 -0.747742 19.122597 1.051286 -3.681281 31.866388 0.000004 -0.000001 -0.000001 1.217002 -4.478557 20.713771 1.619338 -4.465249 39.850582 -0.000001 -0.000004 -0.000001 -0.727941 -0.276723 27.417747 0.821648 -3.283917 28.087676 0.000006 -0.000001 -0.000003 -0.000004 0.000000 -0.000000 -0.000000 -0.000000 0.000000 0.000001 0.000000 -0.000000 -0.000000 -0.000000 0.000000 -0.000000 -0.000000 0.000000 -0.000000 -0.000000 0.000000 0.000001 0.000000 -0.000000 -0.000000 -0.000000 0.000000 -0.000000 -0.000000 0.000000 -0.000000 -0.000000 0.000000 0.000001 0.000000 -0.000000 0.000000 0.000000 0.000000 0.000000 0.000000 0.000000 0.000000 0.000000 0.000000 
1.963339 68.499779 140.992813 1.608284 1.782439 -0.299996 -0.000000 0.000000 0.000000 -19.271213 8.507905 0.563102 34.317077 0.130034 2.418036 -16.870400 -0.118118 -0.068600 0.000000 0.000001 -0.000000 0.000001 -0.000001 -0.000000 -18.649444 -3.914563 -7.003563 31.123065 -4.050750 -1.984588 -13.442393 -1.320712 8.696482 -0.000000 0.000000 -0.000000 0.000000 0.000000 -0.000000 15.385088 -1.470933 1.669512 1.484094 -0.214433 -0.172635 1.483179 -0.223254 -0.171049 14.573329 -1.715272 0.989360 14.935312 -6.694218 -3.898763 -0.000003 0.000001 0.000000 -0.000003 0.000001 0.000000 -0.000003 0.000001 0.000000 -0.000003 0.000001 0.000000 0.000001 0.000001 0.000000 -0.000003 0.000001 0.000000 0.000001 0.000001 0.000000 -0.000003 0.000001 0.000000 -0.000003 0.000001 0.000000 0.536037 -10.416862 -10.562377 6.627035 -6.919053 -58.198560 -0.000017 -58.043193 -0.000015 3.286515 13.589991 -11.148981 0.614327 13.085836 -18.224755 -7.899993 2.795305 28.348495 0.000001 -0.000000 0.000000 -0.792324 0.641286 -31.551868 1.056980 3.670922 -32.115819 0.000001 0.000000 -0.000002 0.727186 3.099483 -29.134725 1.785473 4.630447 -42.154879 0.000005 -0.000000 0.000004 3.164993 7.138435 -31.053735 0.707599 3.045237 -26.156952 0.000001 0.000003 0.000001 5.688969 10.046871 -35.741591 0.473142 -1.555695 -21.710996 -0.000002 -0.000002 -0.000001 0.000000 -0.000000 -0.000001 0.108240 18.103522 13.415021 21.919076 14.206280 45.780528 -0.000023 36.890063 0.000035 -9.144432 -1.991073 3.012852 13.037339 -5.729192 4.916835 -14.310274 -25.007448 -9.673715 -0.000003 0.000001 0.000001 -1.398622 5.136554 13.682384 0.428875 -2.408508 20.190345 0.000000 -0.000001 0.000000 -0.137131 -0.722060 18.530240 1.047322 -3.674911 31.804762 -0.000003 -0.000001 -0.000003 1.189171 -4.423914 20.536376 1.629318 -4.477134 39.978654 0.000004 -0.000002 0.000007 -0.735137 -0.254819 27.355825 0.831706 -3.302638 28.262611 -0.000001 -0.000000 0.000002 0.000001 -0.000000 -0.000000 -0.000002 0.000000 0.000000 -0.000000 0.000000 -0.000000 -0.000002 0.000000 0.000000 -0.000002 0.000000 0.000000 -0.000002 0.000000 0.000000 -0.000000 0.000000 -0.000000 -0.000002 0.000000 0.000000 -0.000002 0.000000 0.000000 -0.000002 0.000000 0.000000 -0.000000 0.000000 -0.000000 -0.000000 0.000000 0.000000 -0.000000 0.000000 0.000000 -0.000000 0.000000 0.000000 
1.719756 68.299484 140.287277 3.615424 3.976341 0.708730 -0.000000 -0.000000 -0.000000 -22.093121 7.281200 -1.054763 34.237184 -0.272196 2.668404 -15.739163 -0.105841 -0.141778 0.000000 -0.000001 -0.000000 -0.000001 0.000000 -0.000000 -22.095116 -3.794884 -8.334877 33.121308 -5.698235 -1.758562 -13.870594 -1.364179 8.870660 0.000000 0.000000 0.000000 -0.000000 -0.000000 0.000000 17.002062 -0.631979 2.778987 1.534009 -0.110697 -0.378334 1.532916 -0.129926 -0.376811 14.780101 -2.198640 1.054958 12.123921 -9.595921 -3.088932 -0.000002 -0.000000 -0.000000 -0.000002 -0.000000 -0.000000 -0.000002 -0.000000 0.000000 -0.000002 -0.000000 -0.000000 0.000000 0.000001 0.000000 -0.000002 -0.000000 -0.000000 0.000000 0.000001 0.000000 -0.000002 -0.000000 -0.000000 -0.000002 -0.000000 -0.000000 0.585017 -11.347968 -9.684570 7.657674 -4.643505 -59.440944 -0.000006 -60.389398 -0.000018 3.286515 13.589992 -11.148973 0.614317 13.085830 -18.224743 -7.900678 2.795202 28.349904 0.000001 -0.000000 0.000001 -0.792314 0.641268 -31.551902 1.056963 3.670918 -32.115795 -0.000003 0.000000 -0.000002 0.727192 3.099474 -29.134763 1.785475 4.630451 -42.154879 0.000000 0.000005 -0.000000 3.164993 7.138425 -31.053756 0.707606 3.045265 -26.156937 -0.000001 0.000001 0.000002 5.688972 10.046868 -35.741608 0.473160 -1.555694 -21.710991 -0.000001 0.000001 0.000001 -0.000001 -0.000001 0.000000 -0.195706 19.588696 15.180492 22.008007 12.650530 41.123534 0.000010 38.743217 -0.000009 -10.417772 -2.121226 1.717390 13.590393 -5.933463 4.984557 -13.999096 -24.929466 -9.368948 0.000003 0.000000 0.000001 -1.306510 5.218541 12.780435 0.421959 -2.389628 20.025116 -0.000001 0.000001 0.000002 -0.120882 -0.733300 18.079786 1.042750 -3.667539 31.733213 0.000003 -0.000001 -0.000001 1.161670 -4.364506 20.405733 1.641225 -4.491264 40.131077 0.000001 -0.000003 -0.000002 -0.761108 -0.199077 27.319512 0.843335 -3.324148 28.463825 0.000001 -0.000001 -0.000001 -0.000002 0.000000 0.000001 -0.000001 0.000000 -0.000000 -0.000001 0.000000 0.000000 -0.000001 0.000000 -0.000000 -0.000001 0.000000 -0.000000 -0.000001 0.000000 -0.000000 -0.000001 0.000000 0.000000 -0.000001 0.000000 -0.000000 -0.000001 0.000000 -0.000000 -0.000001 0.000000 -0.000000 -0.000001 0.000000 0.000000 -0.000000 -0.000000 -0.000000 -0.000000 -0.000000 -0.000000 -0.000000 -0.000000 -0.000000 
